<svg width="101" height="129" viewBox="0 0 101 129" fill="none" xmlns="http://www.w3.org/2000/svg">
<path d="M93.938 3.58035C101.85 8.2926 100.366 21.6923 100.769 38.9879C101 48.6494 101.043 52.8615 100.957 61.7331C100.884 68.4724 101.49 80.3187 99.443 85.9788C97.353 91.744 91.675 93.1392 88.086 94.4818C83.5608 96.1666 78.9776 97.3248 74.3656 97.7725C71.6417 98.0357 68.9178 98.2989 66.2082 98.7201C64.6084 98.9835 61.9854 98.6938 60.5585 100.326C58.8291 102.327 57.6328 111.462 55.6151 116.49C53.8135 120.965 51.4643 125.177 48.726 127.652C47.9621 128.336 47.1262 128.915 46.2758 128.678C43.6095 127.994 43.8113 119.728 43.7969 116.147C43.7825 113.147 43.869 109.961 44.2005 106.934C44.5319 103.906 43.1628 101.168 41.4765 101.432L34.9765 102.458C22.5098 102.827 19.5985 101.985 8.37121 97.8778C3.80251 96.2192 1.17941 90.1381 0.934408 81.398C0.617308 69.9729 0.891109 58.3898 0.862309 46.9645C0.847909 37.6191 0.040808 27.0625 2.79361 18.6384C5.69051 9.76681 11.9311 7.08163 17.5231 5.55476C31.5896 1.84289 45.757 0.184383 59.9821 0.000105835C59.9821 0.000105835 87.25 -0.394774 93.938 3.58035Z" fill="#F7BC28"/>
</svg>
